<svg width="368" height="367" viewBox="0 0 368 367" fill="none" xmlns="http://www.w3.org/2000/svg">
<path d="M275.319 196.302C275.061 209.12 229.219 218.596 172.926 217.466C116.634 216.336 71.2085 205.029 71.4658 192.21C71.7231 179.392 117.566 169.916 173.858 171.046C230.15 172.176 275.576 183.483 275.319 196.302Z" fill="url(#paint0_linear_686_1225)"/>
<path d="M176.722 218.108C194.622 222.782 205.3 241.248 200.573 259.351C195.845 277.455 177.502 288.342 159.602 283.667C141.702 278.993 131.024 260.528 135.751 242.424C140.479 224.321 158.822 213.434 176.722 218.108Z" fill="url(#paint1_linear_686_1225)"/>
<path d="M191.901 112.546C205.748 125.497 206.355 147.349 193.256 161.354C180.158 175.358 158.314 176.213 144.467 163.262C130.62 150.31 130.013 128.458 143.111 114.454C156.21 100.449 178.054 99.5949 191.901 112.546Z" fill="url(#paint2_linear_686_1225)"/>
<path d="M366.999 141.112L354.542 41.6472C353.625 34.504 350.377 27.8629 345.301 22.7536C340.225 17.6443 333.606 14.3523 326.469 13.388L227.004 0.373891C219.274 -0.559264 211.433 0.259716 204.063 2.77009C196.693 5.28046 189.982 9.41781 184.429 14.8753L10.0404 188.335C6.82644 191.557 4.28411 195.386 2.56077 199.599C0.837424 203.811 -0.0326625 208.324 0.000937275 212.876C0.161579 222.041 3.89773 230.781 10.4122 237.23L129.026 356.588C132.287 359.881 136.167 362.496 140.443 364.282C144.718 366.069 149.305 366.993 153.939 367C162.89 367.039 171.501 363.568 177.922 357.332L352.125 183.873C357.698 178.349 361.935 171.625 364.513 164.214C367.091 156.804 367.941 148.902 366.999 141.112ZM198.001 138.695C198.001 144.578 196.257 150.33 192.988 155.221C189.719 160.113 185.074 163.926 179.638 166.177C174.203 168.429 168.222 169.018 162.451 167.87C156.681 166.722 151.381 163.889 147.221 159.729C143.061 155.569 140.227 150.269 139.08 144.498C137.932 138.728 138.521 132.747 140.772 127.312C143.024 121.876 146.837 117.23 151.728 113.962C156.62 110.693 162.371 108.949 168.255 108.949C176.144 108.949 183.71 112.083 189.289 117.661C194.867 123.24 198.001 130.806 198.001 138.695ZM112.48 180.526H224.029C227.727 180.526 231.274 181.995 233.889 184.61C236.504 187.225 237.973 190.772 237.973 194.47C237.973 198.168 236.504 201.715 233.889 204.33C231.274 206.944 227.727 208.414 224.029 208.414H112.48C108.782 208.414 105.235 206.944 102.62 204.33C100.005 201.715 98.5363 198.168 98.5363 194.47C98.5363 190.772 100.005 187.225 102.62 184.61C105.235 181.995 108.782 180.526 112.48 180.526ZM303.601 102.07C300.987 104.681 297.443 106.148 293.748 106.148C290.053 106.148 286.509 104.681 283.894 102.07L256.565 73.6247C254.552 72.6633 252.799 71.233 251.453 69.4539C250.107 67.6748 249.208 65.5988 248.831 63.4002C248.454 61.2016 248.61 58.9446 249.285 56.8187C249.961 54.6928 251.137 52.76 252.714 51.1827C254.292 49.6053 256.224 48.4294 258.35 47.7537C260.476 47.078 262.733 46.9223 264.932 47.2995C267.13 47.6767 269.206 48.5759 270.985 49.9216C272.765 51.2673 274.195 53.0202 275.156 55.0331L303.044 82.9205C305.565 85.437 307.028 88.8232 307.132 92.3842C307.235 95.9451 305.972 99.4108 303.601 102.07ZM138.508 250.802C138.508 244.919 140.253 239.168 143.521 234.276C146.79 229.384 151.436 225.572 156.871 223.32C162.307 221.069 168.288 220.48 174.058 221.627C179.828 222.775 185.128 225.608 189.289 229.768C193.449 233.928 196.282 239.229 197.43 244.999C198.577 250.769 197.988 256.75 195.737 262.186C193.485 267.621 189.673 272.267 184.781 275.536C179.889 278.804 174.138 280.549 168.255 280.549C164.301 280.55 160.387 279.762 156.741 278.232C153.095 276.703 149.791 274.462 147.021 271.64C144.251 268.818 142.072 265.473 140.61 261.799C139.149 258.126 138.434 254.198 138.508 250.245V250.802Z" fill="url(#paint3_linear_686_1225)"/>
<path d="M175.697 250.243C175.697 248.773 175.261 247.335 174.444 246.112C173.627 244.889 172.466 243.936 171.107 243.373C169.748 242.81 168.253 242.663 166.81 242.95C165.367 243.237 164.042 243.945 163.002 244.985C161.962 246.025 161.254 247.35 160.967 248.793C160.68 250.235 160.827 251.73 161.39 253.089C161.953 254.448 162.906 255.61 164.129 256.427C165.352 257.244 166.79 257.68 168.261 257.68C170.233 257.68 172.125 256.896 173.519 255.502C174.914 254.107 175.697 252.216 175.697 250.243ZM160.824 138.694C160.824 140.165 161.26 141.603 162.078 142.826C162.895 144.048 164.056 145.002 165.415 145.564C166.774 146.127 168.269 146.275 169.712 145.988C171.154 145.701 172.479 144.992 173.519 143.952C174.559 142.912 175.268 141.587 175.555 140.145C175.842 138.702 175.694 137.207 175.131 135.848C174.569 134.489 173.615 133.328 172.392 132.511C171.169 131.693 169.732 131.257 168.261 131.257C166.289 131.257 164.397 132.041 163.002 133.435C161.608 134.83 160.824 136.722 160.824 138.694Z" fill="url(#paint4_linear_686_1225)"/>
<defs>
<linearGradient id="paint0_linear_686_1225" x1="128.5" y1="207.5" x2="125.698" y2="175.779" gradientUnits="userSpaceOnUse">
<stop stop-color="#FF8BB5"/>
<stop offset="1" stop-color="#FFB0CD"/>
</linearGradient>
<linearGradient id="paint1_linear_686_1225" x1="194" y1="232.5" x2="159.5" y2="280.5" gradientUnits="userSpaceOnUse">
<stop stop-color="#FFF2D8"/>
<stop offset="1" stop-color="#FFE8BB"/>
</linearGradient>
<linearGradient id="paint2_linear_686_1225" x1="181.5" y1="112.5" x2="154" y2="164.5" gradientUnits="userSpaceOnUse">
<stop stop-color="#D1BDFA"/>
<stop offset="1" stop-color="#AA81FB"/>
</linearGradient>
<linearGradient id="paint3_linear_686_1225" x1="162" y1="369" x2="233" y2="-55" gradientUnits="userSpaceOnUse">
<stop stop-color="#FEC8A3"/>
<stop offset="1" stop-color="#FFDDC5"/>
</linearGradient>
<linearGradient id="paint4_linear_686_1225" x1="167.383" y1="258.369" x2="209.147" y2="246.018" gradientUnits="userSpaceOnUse">
<stop stop-color="#FEC8A3"/>
<stop offset="1" stop-color="#FFDDC5"/>
</linearGradient>
</defs>
</svg>
