<svg width="502" height="502" viewBox="0 0 502 502" fill="none" xmlns="http://www.w3.org/2000/svg">
<rect width="502" height="502" fill="url(#paint0_linear_870_1835)"/>
<path d="M3.48048e-05 251C32.9618 251 65.6008 244.508 96.0536 231.894C126.506 219.28 154.176 200.791 177.484 177.484C200.791 154.176 219.28 126.506 231.894 96.0535C244.508 65.6008 251 32.9618 251 0L4.57764e-05 0L3.48048e-05 251Z" fill="url(#paint1_linear_870_1835)"/>
<path d="M251 8.57446e-06C251 32.9618 257.492 65.6008 270.106 96.0535C282.72 126.506 301.209 154.176 324.516 177.484C347.824 200.791 375.494 219.28 405.946 231.894C436.399 244.508 469.038 251 502 251L502 3.05176e-05L251 8.57446e-06Z" fill="url(#paint2_linear_870_1835)"/>
<path d="M502 251C469.038 251 436.399 257.492 405.946 270.106C375.494 282.72 347.824 301.209 324.516 324.516C301.209 347.824 282.72 375.494 270.106 405.946C257.492 436.399 251 469.038 251 502L502 502L502 251Z" fill="url(#paint3_linear_870_1835)"/>
<path d="M251 502C251 469.038 244.508 436.399 231.894 405.946C219.28 375.494 200.791 347.824 177.484 324.516C154.176 301.209 126.506 282.72 96.0535 270.106C65.6008 257.492 32.9618 251 0 251L-3.29147e-05 502L251 502Z" fill="url(#paint4_linear_870_1835)"/>
<defs>
<linearGradient id="paint0_linear_870_1835" x1="396.108" y1="419.826" x2="44.371" y2="239.96" gradientUnits="userSpaceOnUse">
<stop stop-color="#F3C56D"/>
<stop offset="1" stop-color="#F3DCB1"/>
</linearGradient>
<linearGradient id="paint1_linear_870_1835" x1="37.6353" y1="209.126" x2="72.4624" y2="18.0749" gradientUnits="userSpaceOnUse">
<stop stop-color="#D1808D"/>
<stop offset="1" stop-color="#FFB6C1"/>
</linearGradient>
<linearGradient id="paint2_linear_870_1835" x1="292.874" y1="37.6353" x2="483.925" y2="72.4624" gradientUnits="userSpaceOnUse">
<stop stop-color="#D1808D"/>
<stop offset="1" stop-color="#FFB6C1"/>
</linearGradient>
<linearGradient id="paint3_linear_870_1835" x1="464.365" y1="292.874" x2="429.538" y2="483.925" gradientUnits="userSpaceOnUse">
<stop stop-color="#D1808D"/>
<stop offset="1" stop-color="#FFB6C1"/>
</linearGradient>
<linearGradient id="paint4_linear_870_1835" x1="209.126" y1="464.365" x2="18.0749" y2="429.538" gradientUnits="userSpaceOnUse">
<stop stop-color="#D1808D"/>
<stop offset="1" stop-color="#FFB6C1"/>
</linearGradient>
</defs>
</svg>
