<svg width="502" height="502" viewBox="0 0 502 502" fill="none" xmlns="http://www.w3.org/2000/svg">
<path d="M6.77195e-05 251C6.48379e-05 283.962 6.49237 316.601 19.1063 347.054C31.7202 377.506 50.2087 405.176 73.5162 428.484C96.8237 451.791 124.494 470.28 154.946 482.894C185.399 495.508 218.038 502 251 502L251 251L6.77195e-05 251Z" fill="url(#paint0_linear_870_1852)"/>
<path d="M502 251C502 218.038 495.508 185.399 482.894 154.947C470.28 124.494 451.791 96.8238 428.484 73.5163C405.176 50.2088 377.506 31.7202 347.054 19.1063C316.601 6.49236 283.962 4.82087e-05 251 4.38862e-05L251 251L502 251Z" fill="url(#paint1_linear_870_1852)"/>
<path d="M85.959 250.998C85.959 272.672 90.2279 294.133 98.522 314.156C106.816 334.18 118.973 352.374 134.298 367.7C149.624 383.025 167.818 395.182 187.842 403.476C207.865 411.77 229.327 416.039 251 416.039L251 250.998L85.959 250.998Z" fill="url(#paint2_linear_870_1852)"/>
<path d="M416.041 251.002C416.041 229.329 411.772 207.867 403.478 187.844C395.184 167.82 383.027 149.626 367.702 134.3C352.376 118.975 334.182 106.818 314.159 98.524C294.135 90.2299 272.674 85.961 251 85.961L251 251.002L416.041 251.002Z" fill="url(#paint3_linear_870_1852)"/>
<path d="M165.039 251.002C165.039 203.528 203.524 165.043 250.998 165.043C298.472 165.043 336.957 203.528 336.957 251.002C336.957 298.476 298.472 336.961 250.998 336.961C203.524 336.961 165.039 298.476 165.039 251.002Z" fill="url(#paint4_linear_870_1852)"/>
<defs>
<linearGradient id="paint0_linear_870_1852" x1="41.8737" y1="288.635" x2="232.925" y2="323.462" gradientUnits="userSpaceOnUse">
<stop stop-color="#D1808D"/>
<stop offset="1" stop-color="#FFB6C1"/>
</linearGradient>
<linearGradient id="paint1_linear_870_1852" x1="460.126" y1="213.365" x2="269.075" y2="178.538" gradientUnits="userSpaceOnUse">
<stop stop-color="#D1808D"/>
<stop offset="1" stop-color="#FFB6C1"/>
</linearGradient>
<linearGradient id="paint2_linear_870_1852" x1="120.773" y1="278.014" x2="236.412" y2="337.148" gradientUnits="userSpaceOnUse">
<stop stop-color="#F3C56D"/>
<stop offset="1" stop-color="#F3DCB1"/>
</linearGradient>
<linearGradient id="paint3_linear_870_1852" x1="381.227" y1="223.986" x2="265.588" y2="164.852" gradientUnits="userSpaceOnUse">
<stop stop-color="#F3C56D"/>
<stop offset="1" stop-color="#F3DCB1"/>
</linearGradient>
<linearGradient id="paint4_linear_870_1852" x1="336.957" y1="301.906" x2="159.744" y2="291.657" gradientUnits="userSpaceOnUse">
<stop stop-color="#C5A2EF"/>
<stop offset="1" stop-color="#745896"/>
</linearGradient>
</defs>
</svg>
