<svg width="240" height="60" viewBox="0 0 240 60" xmlns="http://www.w3.org/2000/svg"><rect width="240" height="60" fill="#D78C99"/><path d="M30,15 Q30,30 45,30 Q30,30 30,45 Q30,30 15,30 Q30,30 30,15 Z" fill="#F0C65B"/><path d="M90,15 Q90,30 105,30 Q90,30 90,45 Q90,30 75,30 Q90,30 90,15 Z" fill="#F8CCD3"/><path d="M150,15 Q150,30 165,30 Q150,30 150,45 Q150,30 135,30 Q150,30 150,15 Z" fill="#F0C65B"/><path d="M210,15 Q210,30 225,30 Q210,30 210,45 Q210,30 195,30 Q210,30 210,15 Z" fill="#F8CCD3"/></svg>
