<svg width="3774" height="959" viewBox="0 0 3774 959" fill="none" xmlns="http://www.w3.org/2000/svg">
<path d="M173 205C173 185.118 189.118 169 209 169H759C778.882 169 795 185.118 795 205V755C795 774.882 778.882 791 759 791H433C289.406 791 173 674.594 173 531V205Z" fill="#DFB13F"/>
<path d="M945.419 602.124L913.136 691H899.942L937.114 593.484H945.619L945.419 602.124ZM972.477 691L940.127 602.124L939.927 593.484H948.432L985.738 691H972.477ZM970.802 654.9V665.482H916.016V654.9H970.802ZM1119.35 666.353C1119.35 664.076 1119 662.067 1118.28 660.325C1117.61 658.539 1116.41 656.932 1114.67 655.503C1112.97 654.074 1110.6 652.712 1107.57 651.418C1104.57 650.123 1100.78 648.806 1096.18 647.466C1091.36 646.037 1087 644.452 1083.12 642.711C1079.24 640.925 1075.91 638.893 1073.14 636.616C1070.37 634.339 1068.25 631.727 1066.78 628.78C1065.3 625.833 1064.57 622.462 1064.57 618.667C1064.57 614.871 1065.35 611.366 1066.91 608.152C1068.47 604.937 1070.71 602.146 1073.61 599.78C1076.56 597.369 1080.06 595.493 1084.12 594.154C1088.19 592.814 1092.72 592.144 1097.72 592.144C1105.04 592.144 1111.25 593.551 1116.34 596.364C1121.47 599.132 1125.38 602.771 1128.06 607.281C1130.74 611.746 1132.08 616.523 1132.08 621.614H1119.22C1119.22 617.952 1118.44 614.715 1116.88 611.902C1115.31 609.045 1112.95 606.812 1109.78 605.205C1106.61 603.553 1102.59 602.727 1097.72 602.727C1093.12 602.727 1089.33 603.419 1086.33 604.803C1083.34 606.187 1081.11 608.062 1079.64 610.429C1078.21 612.795 1077.49 615.496 1077.49 618.533C1077.49 620.587 1077.92 622.462 1078.77 624.159C1079.66 625.811 1081.02 627.351 1082.85 628.78C1084.73 630.209 1087.09 631.526 1089.95 632.731C1092.85 633.937 1096.31 635.098 1100.33 636.214C1105.87 637.777 1110.65 639.518 1114.67 641.438C1118.68 643.358 1121.99 645.524 1124.58 647.935C1127.21 650.301 1129.15 653.003 1130.4 656.039C1131.7 659.03 1132.35 662.424 1132.35 666.219C1132.35 670.193 1131.54 673.787 1129.94 677.002C1128.33 680.217 1126.03 682.963 1123.04 685.24C1120.05 687.517 1116.45 689.281 1112.25 690.531C1108.1 691.737 1103.46 692.34 1098.32 692.34C1093.81 692.34 1089.37 691.714 1085 690.464C1080.66 689.214 1076.71 687.339 1073.14 684.838C1069.61 682.338 1066.78 679.257 1064.63 675.596C1062.54 671.89 1061.49 667.603 1061.49 662.736H1074.35C1074.35 666.085 1074.99 668.965 1076.29 671.376C1077.58 673.743 1079.35 675.707 1081.58 677.27C1083.86 678.833 1086.42 679.994 1089.28 680.753C1092.18 681.467 1095.2 681.824 1098.32 681.824C1102.83 681.824 1106.65 681.199 1109.78 679.949C1112.9 678.699 1115.27 676.913 1116.88 674.591C1118.53 672.269 1119.35 669.523 1119.35 666.353ZM1231.27 593.484V691H1218.34V593.484H1231.27ZM1360.67 602.124L1328.38 691H1315.19L1352.36 593.484H1360.87L1360.67 602.124ZM1387.72 691L1355.37 602.124L1355.17 593.484H1363.68L1400.98 691H1387.72ZM1386.05 654.9V665.482H1331.26V654.9H1386.05ZM1557.64 593.484V691H1544.65L1495.55 615.787V691H1482.63V593.484H1495.55L1544.85 668.898V593.484H1557.64ZM1810.61 659.99H1823.46C1822.8 666.152 1821.03 671.666 1818.17 676.533C1815.32 681.4 1811.28 685.262 1806.05 688.12C1800.83 690.933 1794.31 692.34 1786.49 692.34C1780.78 692.34 1775.58 691.268 1770.89 689.125C1766.25 686.981 1762.25 683.945 1758.9 680.016C1755.55 676.042 1752.96 671.287 1751.13 665.75C1749.35 660.169 1748.45 653.963 1748.45 647.131V637.42C1748.45 630.588 1749.35 624.404 1751.13 618.868C1752.96 613.286 1755.57 608.509 1758.97 604.535C1762.41 600.561 1766.54 597.502 1771.36 595.359C1776.18 593.216 1781.61 592.144 1787.63 592.144C1795 592.144 1801.23 593.529 1806.32 596.297C1811.41 599.065 1815.36 602.905 1818.17 607.817C1821.03 612.684 1822.8 618.332 1823.46 624.761H1810.61C1809.98 620.207 1808.82 616.3 1807.12 613.041C1805.43 609.737 1803.02 607.192 1799.89 605.406C1796.76 603.62 1792.68 602.727 1787.63 602.727C1783.3 602.727 1779.48 603.553 1776.18 605.205C1772.92 606.857 1770.17 609.201 1767.94 612.237C1765.75 615.273 1764.1 618.912 1762.99 623.154C1761.87 627.396 1761.31 632.106 1761.31 637.286V647.131C1761.31 651.909 1761.8 656.396 1762.79 660.593C1763.81 664.79 1765.35 668.474 1767.41 671.644C1769.46 674.814 1772.07 677.315 1775.24 679.145C1778.41 680.931 1782.16 681.824 1786.49 681.824C1791.99 681.824 1796.36 680.954 1799.62 679.212C1802.88 677.471 1805.34 674.971 1806.99 671.711C1808.69 668.452 1809.89 664.545 1810.61 659.99ZM1965.45 593.484H1978.31V659.455C1978.31 666.777 1976.68 672.872 1973.42 677.739C1970.16 682.606 1965.83 686.267 1960.43 688.723C1955.07 691.134 1949.24 692.34 1942.95 692.34C1936.34 692.34 1930.36 691.134 1925 688.723C1919.69 686.267 1915.47 682.606 1912.34 677.739C1909.26 672.872 1907.72 666.777 1907.72 659.455V593.484H1920.51V659.455C1920.51 664.545 1921.45 668.742 1923.33 672.046C1925.2 675.35 1927.81 677.806 1931.16 679.413C1934.55 681.021 1938.48 681.824 1942.95 681.824C1947.46 681.824 1951.39 681.021 1954.74 679.413C1958.13 677.806 1960.76 675.35 1962.64 672.046C1964.51 668.742 1965.45 664.545 1965.45 659.455V593.484ZM2081.05 593.484V691H2068.13V593.484H2081.05ZM2225.12 666.353C2225.12 664.076 2224.76 662.067 2224.04 660.325C2223.37 658.539 2222.17 656.932 2220.43 655.503C2218.73 654.074 2216.36 652.712 2213.33 651.418C2210.34 650.123 2206.54 648.806 2201.94 647.466C2197.12 646.037 2192.77 644.452 2188.88 642.711C2185 640.925 2181.67 638.893 2178.9 636.616C2176.13 634.339 2174.01 631.727 2172.54 628.78C2171.07 625.833 2170.33 622.462 2170.33 618.667C2170.33 614.871 2171.11 611.366 2172.67 608.152C2174.24 604.937 2176.47 602.146 2179.37 599.78C2182.32 597.369 2185.82 595.493 2189.89 594.154C2193.95 592.814 2198.48 592.144 2203.48 592.144C2210.81 592.144 2217.01 593.551 2222.1 596.364C2227.24 599.132 2231.14 602.771 2233.82 607.281C2236.5 611.746 2237.84 616.523 2237.84 621.614H2224.98C2224.98 617.952 2224.2 614.715 2222.64 611.902C2221.08 609.045 2218.71 606.812 2215.54 605.205C2212.37 603.553 2208.35 602.727 2203.48 602.727C2198.88 602.727 2195.09 603.419 2192.1 604.803C2189.11 606.187 2186.87 608.062 2185.4 610.429C2183.97 612.795 2183.26 615.496 2183.26 618.533C2183.26 620.587 2183.68 622.462 2184.53 624.159C2185.42 625.811 2186.78 627.351 2188.61 628.78C2190.49 630.209 2192.86 631.526 2195.71 632.731C2198.62 633.937 2202.08 635.098 2206.09 636.214C2211.63 637.777 2216.41 639.518 2220.43 641.438C2224.45 643.358 2227.75 645.524 2230.34 647.935C2232.97 650.301 2234.92 653.003 2236.17 656.039C2237.46 659.03 2238.11 662.424 2238.11 666.219C2238.11 670.193 2237.31 673.787 2235.7 677.002C2234.09 680.217 2231.79 682.963 2228.8 685.24C2225.81 687.517 2222.21 689.281 2218.02 690.531C2213.86 691.737 2209.22 692.34 2204.09 692.34C2199.58 692.34 2195.13 691.714 2190.76 690.464C2186.43 689.214 2182.47 687.339 2178.9 684.838C2175.38 682.338 2172.54 679.257 2170.4 675.596C2168.3 671.89 2167.25 667.603 2167.25 662.736H2180.11C2180.11 666.085 2180.76 668.965 2182.05 671.376C2183.35 673.743 2185.11 675.707 2187.34 677.27C2189.62 678.833 2192.19 679.994 2195.04 680.753C2197.95 681.467 2200.96 681.824 2204.09 681.824C2208.6 681.824 2212.41 681.199 2215.54 679.949C2218.66 678.699 2221.03 676.913 2222.64 674.591C2224.29 672.269 2225.12 669.523 2225.12 666.353ZM2337.03 593.484V691H2324.11V593.484H2337.03ZM2504.14 593.484V691H2491.14L2442.05 615.787V691H2429.12V593.484H2442.05L2491.34 668.898V593.484H2504.14ZM2657.58 680.485V691H2605.94V680.485H2657.58ZM2608.55 593.484V691H2595.62V593.484H2608.55ZM2650.74 635.41V645.926H2605.94V635.41H2650.74ZM2656.91 593.484V604.066H2605.94V593.484H2656.91Z" fill="#122112"/>
<path d="M318.24 558.4C306.144 537.12 299.648 510.464 299.648 480H260C260 544.512 283.744 583.712 303.68 605.216C328.992 632.32 363.488 648 398.656 648V608.352C379.84 608.352 361.248 601.632 345.344 589.76C378.72 571.84 398.656 531.744 398.656 480H359.008C359.008 521.216 343.328 551.008 318.24 558.4Z" fill="#B0903D"/>
<path d="M546.496 336.08L546.72 312H421.28V480H460.704V421.088H506.848V480H546.496L546.496 421.088V408.32V396V385.472V351.648V336.08ZM460.704 385.472V351.648H506.848V385.472H460.704Z" fill="#FBFAF6"/>
<path d="M421.504 623.92L421.28 648H546.72V480H507.296V538.912H461.152V480H421.504L421.504 538.912V551.68V564V574.528V608.352V623.92ZM507.296 574.528V608.352H461.152V574.528H507.296Z" fill="#B0903D"/>
<path d="M361.024 394.432C383.872 411.232 398.432 438.336 398.432 468.576V480H358.784V468.576C358.784 439.456 335.04 415.712 305.92 415.712H299.648V480H260V415.712L260 402.16L260 388.72V376.288V312H299.648V376.288H302.112C331.232 376.288 354.976 352.544 354.976 323.424V312H394.624V323.424C394.624 351.872 381.408 377.408 361.024 394.432Z" fill="#FBFAF6"/>
<path d="M670.144 394.432C692.992 411.232 707.552 438.336 707.552 468.576V480H667.904V468.576C667.904 439.456 644.16 415.712 615.04 415.712H608.768V480H569.12V415.712L569.12 402.16L569.12 388.72V376.288V312H608.768V376.288H611.232C640.352 376.288 664.096 352.544 664.096 323.424V312H703.744V323.424C703.744 351.872 690.528 377.408 670.144 394.432Z" fill="#FBFAF6"/>
<path d="M668.128 541.6V480H707.776V648H668.128V581.248H608.768V648H569.12V480H608.768V541.6H668.128Z" fill="#B0903D"/>
<path d="M998.898 404.785C989.523 404.785 984.836 418.203 984.836 445.039C984.836 459.102 985.891 470.059 988 477.91C990.109 485.645 991.867 490.742 993.273 493.203L996.438 497.422C999.25 501.289 1000.66 503.75 1000.66 504.805C1000.66 508.789 997.727 511.484 991.867 512.891C986.008 514.297 972.121 515 950.207 515C928.293 515 917.336 512.715 917.336 508.145C917.336 505.098 920.734 501.23 927.531 496.543C934.328 491.855 938.488 484.941 940.012 475.801C941.652 466.543 942.473 438.887 942.473 392.832C942.473 346.777 941.535 319.297 939.66 310.391C937.902 301.367 934.797 294.57 930.344 290L926.125 286.133C921.203 281.68 918.742 279.043 918.742 278.223C918.742 272.129 929.758 269.082 951.789 269.082L959.699 269.258H967.961C990.93 269.258 1002.41 271.719 1002.41 276.641C1002.41 278.984 1000.54 282.5 996.789 287.188C993.156 291.875 990.93 295.801 990.109 298.965C987.062 310.098 985.539 330.723 985.539 360.84C985.539 373.262 987.883 379.473 992.57 379.473C994.445 379.473 997.902 377.48 1002.94 373.496C1014.43 364.473 1027.96 350.586 1043.55 331.836C1059.13 312.969 1066.93 299.902 1066.93 292.637L1066.57 287.891L1065.52 283.496L1064.64 279.277C1064.64 275.527 1066.81 273.066 1071.14 271.895C1075.48 270.723 1084.39 270.137 1097.86 270.137C1118.49 270.137 1128.8 273.066 1128.8 278.926C1128.8 280.332 1122.82 285.312 1110.87 293.867C1099.04 302.305 1087.84 312.148 1077.3 323.398C1051.87 350.469 1039.15 368.281 1039.15 376.836C1039.15 381.523 1058.25 408.77 1096.46 458.574C1105.95 470.879 1116.09 481.719 1126.87 491.094C1137.65 500.352 1143.04 505.684 1143.04 507.09C1143.04 512.48 1132.02 515.176 1109.99 515.176H1102.26C1090.19 515.176 1082.16 513.359 1078.18 509.727C1074.19 505.977 1070.91 500.762 1068.33 494.082C1062.82 479.785 1051.81 461.328 1035.29 438.711C1018.76 416.094 1006.63 404.785 998.898 404.785ZM1304.93 410.762V409.707C1304.93 398.691 1295.5 371.152 1276.63 327.09C1273.35 319.473 1271.65 315.664 1271.54 315.664L1266.44 327.441C1246.98 372.793 1237.26 400.332 1237.26 410.059C1237.26 411.699 1238.25 412.578 1240.25 412.695C1242.36 412.812 1243.94 412.871 1244.99 412.871L1258.7 413.223H1271.18L1272.41 413.047C1294.09 413.047 1304.93 412.285 1304.93 410.762ZM1158.33 504.453C1158.33 501.523 1161.67 498.125 1168.35 494.258C1175.03 490.391 1179.95 485.469 1183.12 479.492C1186.28 473.516 1190.73 462.734 1196.48 447.148C1202.22 431.445 1210.01 411.699 1219.86 387.91C1229.82 364.121 1237.67 342.793 1243.41 323.926C1249.27 304.941 1253.25 292.93 1255.36 287.891C1260.17 276.406 1266.96 270.664 1275.75 270.664H1280.68C1282.9 270.664 1285.66 271.895 1288.94 274.355C1295.62 279.395 1302.59 290.176 1309.86 306.699C1312.32 312.324 1316.01 321.992 1320.93 335.703C1325.85 349.297 1335.7 375.957 1350.46 415.684C1365.23 455.41 1373.49 477.031 1375.25 480.547C1378.18 486.641 1383.16 491.562 1390.19 495.312C1397.22 498.945 1400.73 501.875 1400.73 504.102C1400.73 509.023 1397.8 512.07 1391.95 513.242C1387.96 514.062 1377.88 514.473 1361.71 514.473L1351.52 514.648C1329.84 514.648 1319 511.719 1319 505.859C1319 504.805 1320.34 502.285 1323.04 498.301C1325.85 494.316 1327.26 489.277 1327.26 483.184C1327.26 477.09 1325.03 468.359 1320.58 456.992C1316.24 445.625 1312.55 438.594 1309.5 435.898C1306.57 433.203 1293.86 431.855 1271.36 431.855C1248.86 431.855 1235.73 433.086 1231.98 435.547C1228.23 438.008 1224.19 444.629 1219.86 455.41C1215.52 466.191 1213.35 474.98 1213.35 481.777C1213.35 488.457 1215.4 494.375 1219.5 499.531C1223.72 504.688 1225.83 507.383 1225.83 507.617C1225.83 511.836 1218.62 513.945 1204.21 513.945C1189.91 513.945 1178.66 513.418 1170.46 512.363C1162.38 511.191 1158.33 508.555 1158.33 504.453ZM1509.72 404.785C1500.34 404.785 1495.66 418.203 1495.66 445.039C1495.66 459.102 1496.71 470.059 1498.82 477.91C1500.93 485.645 1502.69 490.742 1504.09 493.203L1507.26 497.422C1510.07 501.289 1511.48 503.75 1511.48 504.805C1511.48 508.789 1508.55 511.484 1502.69 512.891C1496.83 514.297 1482.94 515 1461.03 515C1439.11 515 1428.16 512.715 1428.16 508.145C1428.16 505.098 1431.55 501.23 1438.35 496.543C1445.15 491.855 1449.31 484.941 1450.83 475.801C1452.47 466.543 1453.29 438.887 1453.29 392.832C1453.29 346.777 1452.36 319.297 1450.48 310.391C1448.72 301.367 1445.62 294.57 1441.16 290L1436.95 286.133C1432.02 281.68 1429.56 279.043 1429.56 278.223C1429.56 272.129 1440.58 269.082 1462.61 269.082L1470.52 269.258H1478.78C1501.75 269.258 1513.23 271.719 1513.23 276.641C1513.23 278.984 1511.36 282.5 1507.61 287.188C1503.98 291.875 1501.75 295.801 1500.93 298.965C1497.88 310.098 1496.36 330.723 1496.36 360.84C1496.36 373.262 1498.7 379.473 1503.39 379.473C1505.27 379.473 1508.72 377.48 1513.76 373.496C1525.25 364.473 1538.78 350.586 1554.37 331.836C1569.95 312.969 1577.75 299.902 1577.75 292.637L1577.39 287.891L1576.34 283.496L1575.46 279.277C1575.46 275.527 1577.63 273.066 1581.96 271.895C1586.3 270.723 1595.21 270.137 1608.68 270.137C1629.31 270.137 1639.62 273.066 1639.62 278.926C1639.62 280.332 1633.64 285.312 1621.69 293.867C1609.86 302.305 1598.66 312.148 1588.12 323.398C1562.69 350.469 1549.97 368.281 1549.97 376.836C1549.97 381.523 1569.07 408.77 1607.28 458.574C1616.77 470.879 1626.91 481.719 1637.69 491.094C1648.47 500.352 1653.86 505.684 1653.86 507.09C1653.86 512.48 1642.84 515.176 1620.81 515.176H1613.08C1601.01 515.176 1592.98 513.359 1589 509.727C1585.01 505.977 1581.73 500.762 1579.15 494.082C1573.64 479.785 1562.63 461.328 1546.11 438.711C1529.58 416.094 1517.45 404.785 1509.72 404.785ZM1785.52 409.531V416.035C1785.52 423.418 1783.35 427.637 1779.02 428.691C1774.68 429.629 1757.92 430.098 1728.74 430.098H1724.7L1720.66 430.273H1714.15L1711.52 430.449H1703.61L1702.38 430.625H1697.1L1693.23 430.801H1684.45C1680.34 430.801 1678.29 428.691 1678.29 424.473V417.793C1678.29 410.41 1680.7 406.191 1685.5 405.137C1688.55 404.434 1705.07 404.082 1735.07 404.082L1769.17 403.379H1778.14C1783.06 403.379 1785.52 405.43 1785.52 409.531ZM1870.6 508.672C1870.6 505.977 1873.59 502.285 1879.56 497.598C1885.66 492.91 1889.82 487.461 1892.04 481.25C1894.27 474.922 1895.38 462.793 1895.38 444.863C1895.38 426.816 1890.34 408.711 1880.27 390.547C1856.48 347.656 1840.66 320.703 1832.8 309.688C1828.59 303.828 1822.79 298.848 1815.4 294.746C1808.14 290.527 1804.5 286.66 1804.5 283.145C1804.5 278.457 1808.37 275.352 1816.11 273.828C1823.96 272.188 1840.3 271.367 1865.15 271.367C1877.45 271.367 1883.61 274.297 1883.61 280.156C1883.61 280.508 1882.55 282.266 1880.44 285.43C1878.45 288.594 1877.45 292.227 1877.45 296.328C1877.45 305.586 1888.18 329.082 1909.62 366.816C1915.83 377.832 1919.76 383.34 1921.4 383.34C1925.03 383.34 1933.35 371.504 1946.36 347.832C1959.48 324.043 1966.05 308.047 1966.05 299.844C1966.05 297.031 1964.82 293.105 1962.36 288.066C1959.89 283.027 1958.66 280.332 1958.66 279.98C1958.66 273.301 1970.15 269.961 1993.12 269.961H2004.89C2018.72 269.961 2025.64 272.422 2025.64 277.344C2025.64 282.148 2022.36 286.719 2015.79 291.055C2005.83 297.617 1999.04 303.477 1995.4 308.633C1984.39 324.57 1968.8 352.695 1948.64 393.008C1940.32 409.648 1936.16 432.5 1936.16 461.562C1936.16 476.328 1937.34 485.645 1939.68 489.512C1942.14 493.379 1946.07 496.953 1951.46 500.234C1956.96 503.398 1959.72 506.973 1959.72 510.957C1959.72 514.824 1954.45 516.758 1943.9 516.758L1899.6 515.703C1880.27 515.703 1870.6 513.359 1870.6 508.672ZM2165.91 410.762V409.707C2165.91 398.691 2156.48 371.152 2137.61 327.09C2134.33 319.473 2132.63 315.664 2132.51 315.664L2127.41 327.441C2107.96 372.793 2098.23 400.332 2098.23 410.059C2098.23 411.699 2099.23 412.578 2101.22 412.695C2103.33 412.812 2104.91 412.871 2105.97 412.871L2119.68 413.223H2132.16L2133.39 413.047C2155.07 413.047 2165.91 412.285 2165.91 410.762ZM2019.31 504.453C2019.31 501.523 2022.65 498.125 2029.33 494.258C2036.01 490.391 2040.93 485.469 2044.09 479.492C2047.26 473.516 2051.71 462.734 2057.45 447.148C2063.2 431.445 2070.99 411.699 2080.83 387.91C2090.79 364.121 2098.64 342.793 2104.39 323.926C2110.25 304.941 2114.23 292.93 2116.34 287.891C2121.14 276.406 2127.94 270.664 2136.73 270.664H2141.65C2143.88 270.664 2146.63 271.895 2149.91 274.355C2156.59 279.395 2163.57 290.176 2170.83 306.699C2173.29 312.324 2176.98 321.992 2181.91 335.703C2186.83 349.297 2196.67 375.957 2211.44 415.684C2226.2 455.41 2234.46 477.031 2236.22 480.547C2239.15 486.641 2244.13 491.562 2251.16 495.312C2258.2 498.945 2261.71 501.875 2261.71 504.102C2261.71 509.023 2258.78 512.07 2252.92 513.242C2248.94 514.062 2238.86 514.473 2222.69 514.473L2212.49 514.648C2190.81 514.648 2179.97 511.719 2179.97 505.859C2179.97 504.805 2181.32 502.285 2184.02 498.301C2186.83 494.316 2188.23 489.277 2188.23 483.184C2188.23 477.09 2186.01 468.359 2181.55 456.992C2177.22 445.625 2173.53 438.594 2170.48 435.898C2167.55 433.203 2154.84 431.855 2132.34 431.855C2109.84 431.855 2096.71 433.086 2092.96 435.547C2089.21 438.008 2085.17 444.629 2080.83 455.41C2076.5 466.191 2074.33 474.98 2074.33 481.777C2074.33 488.457 2076.38 494.375 2080.48 499.531C2084.7 504.688 2086.81 507.383 2086.81 507.617C2086.81 511.836 2079.6 513.945 2065.19 513.945C2050.89 513.945 2039.64 513.418 2031.44 512.363C2023.35 511.191 2019.31 508.555 2019.31 504.453ZM2534.52 508.496C2534.52 513.418 2526.09 515.879 2509.21 515.879H2500.77L2492.16 515.703C2476.46 515.703 2465.62 515.117 2459.64 513.945C2453.66 512.773 2450.68 510.254 2450.68 506.387C2450.68 505.332 2452.61 502.52 2456.48 497.949C2460.46 493.379 2463.45 487.285 2465.44 479.668C2467.43 472.051 2468.43 458.633 2468.43 439.414C2468.43 420.195 2466.32 408.711 2462.1 404.961C2458 401.094 2441.3 399.16 2412 399.16C2382.82 399.16 2365.83 401.445 2361.03 406.016C2357.86 408.945 2356.28 420.605 2356.28 440.996C2356.28 461.387 2356.98 474.746 2358.39 481.074C2359.91 487.402 2361.91 492.324 2364.37 495.84L2367.88 499.883C2371.52 503.984 2373.33 506.387 2373.33 507.09C2373.33 511.309 2369.64 513.828 2362.26 514.648C2358.98 515 2345.79 515.176 2322.71 515.176C2299.74 515.176 2288.25 512.539 2288.25 507.266C2288.25 504.453 2292.77 500.059 2301.79 494.082C2307.77 490.098 2311.34 484.766 2312.51 478.086C2313.68 471.289 2314.27 443.047 2314.27 393.359C2314.27 343.672 2313.39 314.902 2311.63 307.051C2309.88 299.199 2305.48 293.281 2298.45 289.297C2291.54 285.195 2288.08 281.445 2288.08 278.047C2288.08 273.477 2302.73 271.191 2332.02 271.191H2349.07C2365.48 271.191 2373.68 273.945 2373.68 279.453C2373.68 279.922 2371.69 282.676 2367.71 287.715C2363.72 292.637 2360.91 298.73 2359.27 305.996C2357.75 313.145 2356.98 324.922 2356.98 341.328C2356.98 357.734 2358.92 367.754 2362.79 371.387C2366.65 375.02 2383.06 376.836 2412 376.836C2441.07 376.836 2457.65 374.844 2461.75 370.859C2464.68 368.047 2466.14 357.676 2466.14 339.746C2466.14 321.699 2465.5 310.215 2464.21 305.293C2463.04 300.371 2461.16 296.211 2458.59 292.812L2454.89 288.77C2451.26 284.902 2449.45 282.324 2449.45 281.035C2449.45 276.582 2452.67 273.945 2459.11 273.125C2465.56 272.305 2479.91 271.895 2502.18 271.895C2524.45 271.895 2535.58 274.297 2535.58 279.102C2535.58 282.734 2533.47 286.016 2529.25 288.945C2519.76 295.391 2514.6 299.551 2513.78 301.426C2511.79 305.996 2510.79 328.145 2510.79 367.871L2509.56 454.707C2509.56 470.996 2510.44 481.484 2512.2 486.172C2513.96 490.859 2516.89 494.434 2520.99 496.895C2530.01 502.402 2534.52 506.27 2534.52 508.496ZM2727.36 313.906V372.793C2727.36 381.348 2728.29 386.504 2730.17 388.262C2732.16 389.902 2736.32 390.723 2742.65 390.723H2750.21C2767.67 390.723 2781.14 386.387 2790.64 377.715C2800.13 368.926 2804.88 357.441 2804.88 343.262V336.055C2804.88 321.523 2800.19 310.039 2790.81 301.602C2781.55 293.047 2769.43 288.77 2754.43 288.77H2743.53C2736.14 288.77 2731.57 290 2729.82 292.461C2728.18 294.805 2727.36 301.953 2727.36 313.906ZM2759 270.312C2801.54 270.312 2828.9 283.32 2841.09 309.336C2844.37 316.367 2846.01 325.156 2846.01 335.703C2846.01 355.391 2837.16 372.559 2819.46 387.207C2809.62 395.41 2804.7 402.266 2804.7 407.773C2804.7 409.414 2810.5 420.078 2822.1 439.766C2833.7 459.336 2842.14 472.461 2847.41 479.141C2852.8 485.82 2859.48 490.801 2867.45 494.082C2875.42 497.246 2879.41 500.234 2879.41 503.047C2879.41 511.367 2870.32 515.527 2852.16 515.527C2838.92 515.527 2829.02 512.305 2822.45 505.859C2817.88 501.406 2808.74 486.934 2795.03 462.441C2781.32 437.949 2773.59 424.59 2771.83 422.363C2765.62 414.512 2756.18 410.586 2743.53 410.586C2738.14 410.586 2734.45 413.047 2732.45 417.969C2730.46 422.773 2729.46 433.613 2729.46 450.488C2729.46 467.363 2730.58 478.555 2732.8 484.062C2735.15 489.57 2738.66 494.844 2743.35 499.883C2748.04 504.805 2750.38 507.676 2750.38 508.496C2750.38 512.48 2742.94 514.473 2728.06 514.473L2722.08 514.297L2716.28 513.945C2713.7 513.828 2709.72 513.77 2704.33 513.77C2676.79 513.77 2663.02 511.426 2663.02 506.738C2663.02 502.051 2664.95 498.535 2668.82 496.191C2678.66 490.098 2683.94 486.406 2684.64 485.117C2687.34 480.195 2688.68 466.66 2688.68 444.512L2689.04 432.207L2689.21 419.902C2689.21 415.801 2689.21 411.699 2689.21 407.598L2688.86 389.316C2688.86 341.621 2687.69 313.73 2685.34 305.645C2683.12 297.559 2679.02 291.758 2673.04 288.242C2667.18 284.609 2664.25 281.445 2664.25 278.75C2664.25 274.062 2673.62 271.719 2692.38 271.719L2698.35 271.543C2702.45 271.426 2706.5 271.367 2710.48 271.367L2746.69 270.312H2759ZM3040.6 410.762V409.707C3040.6 398.691 3031.16 371.152 3012.3 327.09C3009.02 319.473 3007.32 315.664 3007.2 315.664L3002.1 327.441C2982.65 372.793 2972.92 400.332 2972.92 410.059C2972.92 411.699 2973.92 412.578 2975.91 412.695C2978.02 412.812 2979.6 412.871 2980.66 412.871L2994.37 413.223H3006.85L3008.08 413.047C3029.76 413.047 3040.6 412.285 3040.6 410.762ZM2894 504.453C2894 501.523 2897.34 498.125 2904.02 494.258C2910.7 490.391 2915.62 485.469 2918.78 479.492C2921.95 473.516 2926.4 462.734 2932.14 447.148C2937.88 431.445 2945.68 411.699 2955.52 387.91C2965.48 364.121 2973.33 342.793 2979.07 323.926C2984.93 304.941 2988.92 292.93 2991.03 287.891C2995.83 276.406 3002.63 270.664 3011.42 270.664H3016.34C3018.57 270.664 3021.32 271.895 3024.6 274.355C3031.28 279.395 3038.25 290.176 3045.52 306.699C3047.98 312.324 3051.67 321.992 3056.59 335.703C3061.52 349.297 3071.36 375.957 3086.12 415.684C3100.89 455.41 3109.15 477.031 3110.91 480.547C3113.84 486.641 3118.82 491.562 3125.85 495.312C3132.88 498.945 3136.4 501.875 3136.4 504.102C3136.4 509.023 3133.47 512.07 3127.61 513.242C3123.62 514.062 3113.55 514.473 3097.38 514.473L3087.18 514.648C3065.5 514.648 3054.66 511.719 3054.66 505.859C3054.66 504.805 3056.01 502.285 3058.7 498.301C3061.52 494.316 3062.92 489.277 3062.92 483.184C3062.92 477.09 3060.7 468.359 3056.24 456.992C3051.91 445.625 3048.21 438.594 3045.17 435.898C3042.24 433.203 3029.52 431.855 3007.02 431.855C2984.52 431.855 2971.4 433.086 2967.65 435.547C2963.9 438.008 2959.86 444.629 2955.52 455.41C2951.18 466.191 2949.02 474.98 2949.02 481.777C2949.02 488.457 2951.07 494.375 2955.17 499.531C2959.39 504.688 2961.5 507.383 2961.5 507.617C2961.5 511.836 2954.29 513.945 2939.88 513.945C2925.58 513.945 2914.33 513.418 2906.12 512.363C2898.04 511.191 2894 508.555 2894 504.453ZM3276.85 297.031C3267.24 290.469 3256.4 287.188 3244.33 287.188C3232.38 287.188 3222.59 290.352 3214.97 296.68C3207.36 302.891 3203.55 311.68 3203.55 323.047C3203.55 334.297 3209.23 344.258 3220.6 352.93C3227.39 358.203 3241.28 365.352 3262.26 374.375C3283.23 383.398 3297.82 391.719 3306.03 399.336C3321.73 413.867 3329.58 428.984 3329.58 444.688V451.016C3329.58 470.469 3321.85 486.289 3306.38 498.477C3299.23 504.102 3290.32 508.613 3279.66 512.012C3269 515.293 3258.33 516.934 3247.67 516.934H3241.16C3217.02 516.934 3195.87 513.301 3177.71 506.035C3169.5 502.754 3165.4 493.789 3165.4 479.141V472.988C3165.4 455.645 3168.39 446.973 3174.37 446.973C3178.47 446.973 3184.04 452.539 3191.07 463.672C3198.1 474.805 3206.18 483.184 3215.32 488.809C3224.58 494.434 3235.71 497.246 3248.72 497.246C3261.73 497.246 3272.22 493.848 3280.19 487.051C3288.16 480.137 3292.14 471.641 3292.14 461.562C3292.14 447.734 3285.7 436.074 3272.8 426.582C3267.3 422.598 3253.47 415.508 3231.32 405.312C3209.17 395 3193.82 385.391 3185.27 376.484C3173.55 364.297 3167.69 349.414 3167.69 331.836C3167.69 314.258 3173.96 299.668 3186.5 288.066C3193.41 281.621 3202.02 276.641 3212.34 273.125C3222.65 269.492 3233.2 267.676 3243.98 267.676H3250.48C3254.93 267.676 3261.26 268.438 3269.46 269.961L3275.62 271.191C3282.88 272.598 3286.81 273.359 3287.39 273.477L3292.84 273.828L3298.12 274.004C3303.04 274.355 3306.5 274.941 3308.49 275.762C3315.4 278.574 3318.86 288.359 3318.86 305.117C3318.86 321.875 3315.58 330.254 3309.02 330.254C3305.73 330.254 3300.81 325.566 3294.25 316.191C3287.69 306.816 3281.89 300.43 3276.85 297.031ZM3496.22 410.762V409.707C3496.22 398.691 3486.79 371.152 3467.92 327.09C3464.64 319.473 3462.94 315.664 3462.82 315.664L3457.73 327.441C3438.27 372.793 3428.55 400.332 3428.55 410.059C3428.55 411.699 3429.54 412.578 3431.54 412.695C3433.64 412.812 3435.23 412.871 3436.28 412.871L3449.99 413.223H3462.47L3463.7 413.047C3485.38 413.047 3496.22 412.285 3496.22 410.762ZM3349.62 504.453C3349.62 501.523 3352.96 498.125 3359.64 494.258C3366.32 490.391 3371.24 485.469 3374.41 479.492C3377.57 473.516 3382.02 462.734 3387.77 447.148C3393.51 431.445 3401.3 411.699 3411.14 387.91C3421.11 364.121 3428.96 342.793 3434.7 323.926C3440.56 304.941 3444.54 292.93 3446.65 287.891C3451.46 276.406 3458.25 270.664 3467.04 270.664H3471.96C3474.19 270.664 3476.95 271.895 3480.23 274.355C3486.91 279.395 3493.88 290.176 3501.14 306.699C3503.61 312.324 3507.3 321.992 3512.22 335.703C3517.14 349.297 3526.98 375.957 3541.75 415.684C3556.52 455.41 3564.78 477.031 3566.54 480.547C3569.46 486.641 3574.45 491.562 3581.48 495.312C3588.51 498.945 3592.02 501.875 3592.02 504.102C3592.02 509.023 3589.09 512.07 3583.23 513.242C3579.25 514.062 3569.17 514.473 3553 514.473L3542.8 514.648C3521.12 514.648 3510.29 511.719 3510.29 505.859C3510.29 504.805 3511.63 502.285 3514.33 498.301C3517.14 494.316 3518.55 489.277 3518.55 483.184C3518.55 477.09 3516.32 468.359 3511.87 456.992C3507.53 445.625 3503.84 438.594 3500.79 435.898C3497.86 433.203 3485.15 431.855 3462.65 431.855C3440.15 431.855 3427.02 433.086 3423.27 435.547C3419.52 438.008 3415.48 444.629 3411.14 455.41C3406.81 466.191 3404.64 474.98 3404.64 481.777C3404.64 488.457 3406.69 494.375 3410.79 499.531C3415.01 504.688 3417.12 507.383 3417.12 507.617C3417.12 511.836 3409.91 513.945 3395.5 513.945C3381.2 513.945 3369.95 513.418 3361.75 512.363C3353.66 511.191 3349.62 508.555 3349.62 504.453Z" fill="black"/>
</svg>
