<svg width="200" height="200" viewBox="0 0 200 200" fill="none" xmlns="http://www.w3.org/2000/svg">
  <defs>
    <linearGradient id="fkP" x1="74" y1="56" x2="150" y2="88" gradientUnits="userSpaceOnUse">
      <stop stop-color="#AB8CDB"/><stop offset="1" stop-color="#6E51A6"/>
    </linearGradient>
    <linearGradient id="fkR" x1="74" y1="94" x2="132" y2="126" gradientUnits="userSpaceOnUse">
      <stop stop-color="#F4B0BC"/><stop offset="1" stop-color="#DD7B91"/>
    </linearGradient>
    <linearGradient id="fkY" x1="74" y1="132" x2="114" y2="164" gradientUnits="userSpaceOnUse">
      <stop stop-color="#F8DD8E"/><stop offset="1" stop-color="#ECBC50"/>
    </linearGradient>
    <filter id="fkSh" x="-20%" y="-20%" width="140%" height="140%">
      <feDropShadow dx="0" dy="6" stdDeviation="9" flood-color="#6B5C8A" flood-opacity="0.18"/>
    </filter>
  </defs>
  <!-- white leaf container: 3 rounded corners + pointed bottom-right -->
  <path d="M66 0 H134 Q200 0 200 66 V200 H66 Q0 200 0 134 V66 Q0 0 66 0 Z" fill="#FFFFFF" filter="url(#fkSh)"/>
  <!-- F stripes -->
  <path d="M84 58 H150 L134 86 H84 A14 14 0 0 1 84 58 Z" fill="url(#fkP)"/>
  <path d="M84 96 H130 L114 124 H84 A14 14 0 0 1 84 96 Z" fill="url(#fkR)"/>
  <path d="M84 134 H112 L96 162 H84 A14 14 0 0 1 84 134 Z" fill="url(#fkY)"/>
</svg>
